<svg id="Layer_1" xmlns="http://www.w3.org/2000/svg" viewBox="-124.2 394.4 229.5 54.7"><style>.st0{fill:#f26531}.st1{fill:#0054a6}</style><path class="st0" d="M-115.7 447.8H-71v-30.4c-9.8 16-25.8 26.3-44.7 30.4z"/><path class="st1" d="M-123.1 395.6H-71c-6.2 26.4-26.9 46.2-52.2 52.2l.1-52.2zM-57.6 428.9h6.1c.2 1.7.9 3 2 3.6 1.2.8 2.8 1.2 4.8 1.2 1.8 0 3.2-.3 4.1-1 .9-.6 1.4-1.6 1.4-2.8 0-1.9-2.6-3.4-7.8-4.5l-.2-.1-.7-.2c-3-.6-4.9-1.3-5.9-2-1.2-.6-2-1.6-2.4-2.8-.6-1-.9-2.4-.9-4 0-2.8 1-5.1 3-6.7s4.8-2.3 8.6-2.3c3.5 0 6.3.8 8.2 2.4 2 1.8 3 4.1 3.1 7h-3.5c-1.3 0-2.3-.6-2.9-1.8-.3-.6-.7-1.1-1.2-1.5-1-.8-2.5-1.1-4.3-1.1-1.7 0-3 .3-3.7 1-.9.6-1.3 1.5-1.3 2.7 0 1.6 1.7 2.7 5 3.5 1 .3 1.7.5 2.2.5 1 .3 2 .6 2.7.8.8.2 1.4.4 1.9.5.8.3 1.6.7 2.4 1 1.2.7 2.1 1.6 2.7 2.7.6 1.2 1 2.5 1 4 0 3.1-1 5.6-3.1 7.3-2.1 1.6-5 2.4-8.9 2.4s-6.9-.8-8.9-2.5c-2.2-1.5-3.4-4-3.5-7.3zM-19.8 408.3h4.9L-4 438.2h-6.5l-2-6.2h-11.6l-1.9 6.2h-6.5l9.9-27.9c.4-1.3 1.4-2 2.8-2zm1.4 6l-4.2 12.7h8.3l-4.1-12.7zM1.8 438.2l-10.3-29.9h6.9l6.3 22.3 5.8-20.1c.3-1.5 1.3-2.3 3-2.3h4.4L7.7 438.1l-5.9.1zM20.3 438.2v-26.7c0-.9.3-1.6.9-2.2s1.3-.9 2.2-.9H42v5.1H26.4v6.4H38v2c0 .9-.3 1.6-.9 2.2-.6.6-1.3.9-2.2.9h-8.5v7.7H42v5.6l-21.7-.1zM45.9 438.2v-26.7c0-.9.3-1.6.9-2.2.6-.6 1.3-.9 2.2-.9h8.6c4.6 0 8 1.2 10.3 3.6 2.3 2.5 3.4 6.3 3.4 11.3 0 2.7-.4 5.1-1.2 7.2-.9 2.2-2.1 3.9-3.6 5-1.3 1-2.6 1.7-4.1 2.1-1.4.4-3.5.6-6.3.6H45.9zm6-5.4h5c2.8 0 4.9-.8 6.3-2.3 1.3-1.4 1.9-3.8 1.9-7.3 0-3.4-.6-5.8-1.8-7.4-1.2-1.6-3-2.3-5.6-2.3H52l-.1 19.3zM74 423.3c0-4.9 1.3-8.7 3.8-11.6 2.7-2.8 6.3-4.3 10.7-4.3 4.3 0 7.9 1.4 10.7 4.3 2.6 2.9 3.9 6.7 3.9 11.6 0 4.8-1.3 8.6-3.9 11.5-2.7 2.8-6.2 4.2-10.7 4.2s-8.1-1.4-10.7-4.2c-2.5-2.8-3.8-6.7-3.8-11.5zm6.2 0c0 3.4.7 5.9 2.2 7.6 1.4 1.8 3.5 2.7 6.2 2.7 2.6 0 4.7-.9 6.2-2.7 1.5-1.9 2.3-4.4 2.3-7.6s-.8-5.8-2.3-7.7c-1.5-1.8-3.6-2.7-6.2-2.7-2.7 0-4.7.9-6.2 2.7-1.5 1.7-2.2 4.3-2.2 7.7z"/></svg>